<?xml version="1.0" encoding="utf-8"?>
<!-- Generator: Adobe Illustrator 16.0.0, SVG Export Plug-In . SVG Version: 6.00 Build 0)  -->
<!DOCTYPE svg PUBLIC "-//W3C//DTD SVG 1.1//EN" "http://www.w3.org/Graphics/SVG/1.1/DTD/svg11.dtd">
<svg version="1.1" id="Layer_1" xmlns="http://www.w3.org/2000/svg" xmlns:xlink="http://www.w3.org/1999/xlink" x="0px" y="0px"
	 width="250px" height="40px" viewBox="0 0 250 40" enable-background="new 0 0 250 40" xml:space="preserve">
<path fill-rule="evenodd" clip-rule="evenodd" fill="#008B99" d="M41.119,1.333h-5.332c-1.842,0.036-3.059,1.167-3.572,2.505
	l-8.621,23.916h4.976c1.776,0,3.297-0.91,3.834-2.583l4.745-12.841l6.966,19.15H8.2L19.068,1.349h-1.253
	c-2.081,0-3.22,1.315-3.616,2.424L3.233,34.043c-0.97,2.691,1.06,4.934,3.508,5.006l42.564-0.01c2.901,0,4.513-2.702,3.485-5.452
	L41.119,1.333 M16.582,27.755c1.661,0.026,3.35-1.092,3.895-2.69l8.646-23.724h-3.257c-1.804,0-3.254,1.196-3.7,2.642l-8.647,23.772
	H16.582z"/>
<path fill-rule="evenodd" clip-rule="evenodd" fill="#008B99" d="M60.862,8.863c-0.313-0.03-1.162,0.247-1.626,1.404l-1.369,3.327
	h7.316v14.051h7.549V13.594h5.748V8.863H60.862 M93.208,15.92h-5.654v-2.246h9.287c1.837-0.088,2.645-3.395,3.35-4.811H81.837
	c-0.94-0.063-1.566,0.442-1.692,1.39V27.62h12.374c6.827,0,8.455-2.929,8.455-5.708C100.974,18.818,98.844,15.92,93.208,15.92z
	 M90.514,23.557h-2.99v-3.595h2.865c1.754,0,2.463,0.814,2.463,1.888C92.852,23.049,92.018,23.557,90.514,23.557z M121.209,8.846
	c-0.973,0.015-1.623,0.485-1.951,1.41l-2.53,7.065V8.848h-4.646l0.001-0.002h-3.521c-0.016,0-0.031,0-0.046,0
	c-0.973,0.015-1.623,0.485-1.951,1.41l-6.256,17.303h3.365c1.065,0,1.863-0.402,2.263-1.343l3.338-9.436v10.831h7.152
	c1.065,0,1.864-0.455,2.263-1.396l3.275-9.346v10.741h7.456V8.847C126.688,8.847,123.942,8.799,121.209,8.846z"/>
<path fill="#F38025" d="M153.208,15.92h-5.653v-2.246h9.286c1.837-0.088,2.646-3.395,3.351-4.811h-18.354
	c-0.94-0.063-1.565,0.442-1.692,1.39V27.62h12.375c6.826,0,8.455-2.929,8.455-5.708C160.975,18.818,158.844,15.92,153.208,15.92z
	 M150.514,23.557h-2.99v-3.595h2.865c1.754,0,2.463,0.814,2.463,1.888C152.852,23.049,152.018,23.557,150.514,23.557z"/>
<path fill="#F38025" d="M181.858,10.756c-1.224-1.105-3.301-1.867-6.686-1.896c-0.067,0-0.127-0.005-0.195-0.005h-3.919
	c-0.068,0-0.128,0.005-0.195,0.005c-3.385,0.029-5.463,0.791-6.686,1.896c-1.182,1.068-1.574,2.454-1.574,3.806v7.346
	c0,1.354,0.393,2.738,1.574,3.807c1.223,1.105,3.301,1.867,6.686,1.896c0.067,0,0.127,0.006,0.195,0.006h3.919
	c0.068,0,0.128-0.006,0.195-0.006c3.385-0.029,5.462-0.791,6.686-1.896c1.183-1.068,1.574-2.453,1.574-3.807v-7.346
	C183.433,13.209,183.041,11.824,181.858,10.756z M176.025,22.963c0,0.391-0.113,0.791-0.455,1.1
	c-0.353,0.318-0.953,0.539-1.93,0.547c-0.02,0-0.037,0.002-0.057,0.002h-1.132c-0.021,0-0.036-0.002-0.056-0.002
	c-0.979-0.008-1.578-0.229-1.932-0.547c-0.341-0.309-0.454-0.709-0.454-1.1v-9.457c0-0.391,0.113-0.791,0.454-1.1
	c0.354-0.319,0.953-0.539,1.932-0.547c0.02,0,0.035-0.001,0.056-0.001h1.132c0.02,0,0.037,0.001,0.057,0.001
	c0.977,0.009,1.577,0.229,1.93,0.547c0.342,0.309,0.455,0.709,0.455,1.1V22.963z"/>
<polygon fill-rule="evenodd" clip-rule="evenodd" fill="#F38025" points="198.463,8.857 198.463,15.92 192.448,15.92 192.448,8.857 
	185.041,8.857 185.041,27.62 192.448,27.62 192.448,19.962 198.463,19.962 198.463,27.62 205.87,27.62 205.87,8.857 "/>
<path fill-rule="evenodd" clip-rule="evenodd" fill="#F38025" d="M224.642,8.846h-3.459l-3.267,6.469l-3.717-6.467l-6.908-0.002
	l7.624,12.392l-3.207,6.373h5.151c1.065,0,1.864-0.455,2.263-1.396l8.998-17.369L224.642,8.846z"/>
<path fill="#F38025" d="M241.087,24.062c-0.353,0.318-0.953,0.539-1.93,0.547c-0.02,0-0.037,0.002-0.057,0.002h-1.132
	c-0.021,0-0.036-0.002-0.056-0.002c-0.979-0.008-1.578-0.229-1.932-0.547c-0.341-0.309-0.454-0.709-0.454-1.1v-9.457
	c0-0.391,0.113-0.791,0.454-1.1c0.354-0.319,0.953-0.539,1.932-0.547c0.02,0,0.035-0.001,0.056-0.001h1.132
	c0.02,0,0.037,0.001,0.057,0.001c0.977,0.009,1.577,0.229,1.93,0.547c0.342,0.309,0.455,0.709,0.455,1.1v2.414h7.407v-1.358
	c0-1.353-0.392-2.738-1.574-3.806c-1.224-1.105-3.301-1.867-6.686-1.896c-0.067,0-0.127-0.005-0.195-0.005h-3.919
	c-0.068,0-0.128,0.005-0.195,0.005c-3.385,0.029-5.463,0.791-6.686,1.896c-1.183,1.068-1.574,2.454-1.574,3.806v7.346
	c0,1.354,0.392,2.738,1.574,3.807c1.223,1.105,3.301,1.867,6.686,1.896c0.067,0,0.127,0.006,0.195,0.006h3.919
	c0.068,0,0.128-0.006,0.195-0.006c3.385-0.029,5.462-0.791,6.686-1.896c1.183-1.068,1.574-2.453,1.574-3.807v-1.946h-7.407v3.001
	C241.542,23.354,241.429,23.754,241.087,24.062z"/>
</svg>
