<?xml version="1.0" encoding="utf-8"?>
<!-- Generator: Adobe Illustrator 16.0.0, SVG Export Plug-In . SVG Version: 6.00 Build 0)  -->
<!DOCTYPE svg PUBLIC "-//W3C//DTD SVG 1.1//EN" "http://www.w3.org/Graphics/SVG/1.1/DTD/svg11.dtd">
<svg version="1.1" id="Layer_1" xmlns="http://www.w3.org/2000/svg" xmlns:xlink="http://www.w3.org/1999/xlink" x="0px" y="0px"
	 width="37px" height="37px" viewBox="0 0 37 37" enable-background="new 0 0 37 37" xml:space="preserve">
<g>
	<path fill="#F9AB19" d="M18.521,0.042c-10.189,0-18.479,8.29-18.479,18.479S8.331,37,18.521,37S37,28.711,37,18.521
		S28.71,0.042,18.521,0.042z M18.521,35C9.434,35,2.042,27.607,2.042,18.521c0-9.087,7.393-16.479,16.479-16.479
		C27.607,2.042,35,9.435,35,18.521C35,27.607,27.607,35,18.521,35z"/>
	<rect x="16.291" y="24.916" fill="#F9AB19" width="4.02" height="3.418"/>
	<path fill="#F9AB19" d="M18.656,8.141c-1.933,0-3.484,0.46-4.655,1.381c-1.171,0.921-1.766,2.292-1.784,4.115h4.006
		c0.009-0.793,0.244-1.386,0.704-1.777c0.46-0.392,1.037-0.588,1.729-0.588c0.838,0,1.475,0.234,1.907,0.704
		s0.649,1.128,0.649,1.976c0,0.766-0.191,1.447-0.574,2.044s-0.902,1.169-1.559,1.716c-1.13,0.866-1.873,1.584-2.229,2.153
		s-0.538,1.506-0.547,2.81h3.979c0-0.774,0.082-1.372,0.246-1.791s0.533-0.848,1.107-1.285c1.048-0.684,1.904-1.509,2.57-2.475
		c0.665-0.966,0.998-2.037,0.998-3.213c0-1.813-0.57-3.229-1.709-4.245C22.356,8.648,20.743,8.141,18.656,8.141z"/>
</g>
</svg>
