<?xml version="1.0" encoding="utf-8"?>
<!-- Generator: Adobe Illustrator 23.0.0, SVG Export Plug-In . SVG Version: 6.00 Build 0)  -->
<svg version="1.1" id="Layer_1" xmlns="http://www.w3.org/2000/svg" xmlns:xlink="http://www.w3.org/1999/xlink" x="0px" y="0px"
	 viewBox="0 0 37 37" style="enable-background:new 0 0 37 37;" xml:space="preserve">
<style type="text/css">
	.st0{fill:#FF8D00;}
</style>
<g>
	<g>
		<path class="st0" d="M18.5,0C8.3,0,0,8.3,0,18.5S8.3,37,18.5,37C28.7,37,37,28.7,37,18.5S28.7,0,18.5,0z M18.5,35
			C9.4,35,2,27.6,2,18.5C2,9.4,9.4,2,18.5,2C27.6,2,35,9.4,35,18.5S27.6,35,18.5,35z"/>
	</g>
	<g>
		<rect x="21.7" y="20.4" class="st0" width="5.7" height="1.4"/>
		<polygon class="st0" points="17.4,20.9 13.3,12.1 10.3,12.1 10.3,25.6 13.1,25.6 13.1,16.8 17.1,25.6 20.1,25.6 20.1,12.1 
			17.4,12.1 		"/>
		<path class="st0" d="M26.9,12.9c-0.6-0.6-1.4-0.9-2.4-0.9c-1,0-1.8,0.3-2.4,0.9c-0.6,0.6-0.9,1.4-0.9,2.4v0.6c0,1,0.3,1.8,0.9,2.4
			c0.6,0.6,1.4,0.9,2.4,0.9c1,0,1.8-0.3,2.4-0.9c0.6-0.6,0.9-1.4,0.9-2.4v-0.6C27.8,14.3,27.5,13.5,26.9,12.9z M26.2,15.9
			c0,0.6-0.1,1.1-0.4,1.5c-0.3,0.4-0.7,0.5-1.2,0.5c-0.5,0-0.9-0.2-1.2-0.5c-0.3-0.3-0.4-0.8-0.4-1.4v-0.6c0-0.6,0.1-1.1,0.4-1.5
			c0.3-0.4,0.7-0.5,1.2-0.5c0.5,0,0.9,0.2,1.2,0.5s0.4,0.8,0.4,1.4V15.9z"/>
	</g>
</g>
</svg>
