<?xml version="1.0" encoding="utf-8"?>
<!-- Generator: Adobe Illustrator 16.0.0, SVG Export Plug-In . SVG Version: 6.00 Build 0)  -->
<!DOCTYPE svg PUBLIC "-//W3C//DTD SVG 1.1//EN" "http://www.w3.org/Graphics/SVG/1.1/DTD/svg11.dtd">
<svg version="1.1" id="Layer_1" xmlns="http://www.w3.org/2000/svg" xmlns:xlink="http://www.w3.org/1999/xlink" x="0px" y="0px"
	 width="37px" height="37px" viewBox="0 0 37 37" enable-background="new 0 0 37 37" xml:space="preserve">
<g>
	<g>
		<path fill="#FFFFFF" d="M18.521,36.979c-10.178,0-18.458-8.28-18.458-18.458c0-10.179,8.28-18.459,18.458-18.459
			c10.179,0,18.46,8.28,18.46,18.459C36.98,28.699,28.699,36.979,18.521,36.979z M18.521,2.062c-9.075,0-16.458,7.383-16.458,16.459
			c0,9.075,7.383,16.458,16.458,16.458c9.076,0,16.46-7.383,16.46-16.458C34.98,9.445,27.597,2.062,18.521,2.062z"/>
	</g>
	<path fill="#FFFFFF" d="M22.775,13.047c0.633-0.445,1.264-1.219,1.264-2.529c0-2.625-2.125-2.469-2.531-2.469
		s-2.092,0.248-2.968,2.775v-0.013c-0.875-2.532-2.562-2.78-2.969-2.78S13.04,7.875,13.04,10.5c0,1.329,0.649,2.104,1.29,2.547
		H9.071v7.016h1.042v8.042h16.918v-8.042h0.979v-7.016H22.775z M20.32,10.314c0.206-0.191,1.688-0.516,1.688,0.859
		c0,0.902-0.561,1.495-1.141,1.873h-1.736C19.303,11.75,19.996,10.615,20.32,10.314z M15.071,11.156
		c0-1.375,1.481-1.051,1.688-0.859c0.326,0.303,1.022,1.446,1.19,2.75h-1.714C15.647,12.67,15.071,12.07,15.071,11.156z
		 M14.071,26.104h-1.958v-6.042h1.958V26.104z M14.071,18.062h-3v-3.016h3V18.062z M22.072,26.104H15.04v-6.042h7.032V26.104z
		 M22.072,18.062H15.04v-3.016h7.032V18.062z M25.031,26.104h-1.99v-6.042h1.99V26.104z M26.01,18.062h-2.969v-3.016h2.969V18.062z"
		/>
</g>
</svg>
