<?xml version="1.0" encoding="utf-8"?>
<!-- Generator: Adobe Illustrator 16.0.0, SVG Export Plug-In . SVG Version: 6.00 Build 0)  -->
<!DOCTYPE svg PUBLIC "-//W3C//DTD SVG 1.1//EN" "http://www.w3.org/Graphics/SVG/1.1/DTD/svg11.dtd">
<svg version="1.1" id="Layer_1" xmlns="http://www.w3.org/2000/svg" xmlns:xlink="http://www.w3.org/1999/xlink" x="0px" y="0px"
	 width="37px" height="37px" viewBox="0 0 37 37" enable-background="new 0 0 37 37" xml:space="preserve">
<g>
	<path fill="#F9AB19" d="M18.521,0.042c-10.19,0-18.479,8.29-18.479,18.479S8.332,37,18.521,37C28.711,37,37,28.711,37,18.521
		S28.711,0.042,18.521,0.042z M18.521,35C9.435,35,2.042,27.607,2.042,18.521c0-9.087,7.393-16.479,16.479-16.479
		C27.607,2.042,35,9.435,35,18.521C35,27.607,27.607,35,18.521,35z"/>
	<g>
		<path fill="#F9AB19" d="M15.396,7.859c0,0-3.729-0.486-3.729,4.508c0,2.498,0.908,5.061,3.729,5.061
			c2.822,0,3.73-2.562,3.73-5.061C19.127,7.373,15.396,7.859,15.396,7.859z"/>
		<path fill="#F9AB19" d="M21.602,20.395c-0.565-0.356-3.422-1.913-3.422-1.913l-1.532,4.784l-0.905-2.53
			c0,0,0.664-0.664,0.664-1.41s-0.896-0.844-1.049-0.844s-1.05,0.098-1.05,0.844s0.665,1.41,0.665,1.41l-0.907,2.53l-1.533-4.784
			c0,0-2.856,1.557-3.42,1.913c-0.565,0.357-1.678,1.055-1.678,3.261c0,2.205,0,3.892,0,3.892h7.923h7.922c0,0,0-1.687,0-3.892
			C23.279,21.449,22.166,20.752,21.602,20.395z"/>
	</g>
	<g>
		<path fill="#F9AB19" d="M24.974,15.503c2.272,0,3.005-2.063,3.005-4.075c0-4.023-3.005-3.632-3.005-3.632
			s-3.005-0.392-3.005,3.632C21.969,13.439,22.7,15.503,24.974,15.503z"/>
		<path fill="#F9AB19" d="M29.971,17.894c-0.455-0.286-2.755-1.541-2.755-1.541l-1.235,3.854l-0.729-2.038
			c0,0,0.534-0.535,0.534-1.137c0-0.601-0.722-0.679-0.844-0.679c-0.123,0-0.846,0.078-0.846,0.679c0,0.602,0.535,1.137,0.535,1.137
			l-0.729,2.038l-1.235-3.854c0,0-2.408,1.364-2.863,1.652c-0.091,0.057-0.09,0.145-0.205,0.23c0.732,0.395,2.039,1.103,2.438,1.354
			c0.565,0.357,2.151,1.212,2.151,3.417c0,0.223,0,0.438,0,0.649h0.754h6.381c0,0,0-1.359,0-3.136
			C31.322,18.744,30.426,18.182,29.971,17.894z"/>
	</g>
</g>
</svg>
