<?xml version="1.0" encoding="utf-8"?>
<!-- Generator: Adobe Illustrator 16.0.0, SVG Export Plug-In . SVG Version: 6.00 Build 0)  -->
<!DOCTYPE svg PUBLIC "-//W3C//DTD SVG 1.1//EN" "http://www.w3.org/Graphics/SVG/1.1/DTD/svg11.dtd">
<svg version="1.1" id="Layer_1" xmlns="http://www.w3.org/2000/svg" xmlns:xlink="http://www.w3.org/1999/xlink" x="0px" y="0px"
	 width="37px" height="37px" viewBox="0 0 37 37" enable-background="new 0 0 37 37" xml:space="preserve">
<g>
	<g>
		<path fill="#F9AB19" d="M18.521,0.042c-10.19,0-18.479,8.29-18.479,18.479S8.332,37,18.521,37C28.711,37,37,28.711,37,18.521
			S28.711,0.042,18.521,0.042z M18.521,35C9.435,35,2.042,27.607,2.042,18.521c0-9.087,7.393-16.479,16.479-16.479
			C27.607,2.042,35,9.435,35,18.521C35,27.607,27.607,35,18.521,35z"/>
	</g>
	<g>
		<path fill="#F9AB19" d="M26.549,10.825c-0.301-0.301-0.709-0.47-1.135-0.47h-0.843V9.51c0-0.426-0.169-0.834-0.47-1.135
			c-0.302-0.302-0.71-0.471-1.135-0.471H10.794c-0.426,0-0.834,0.169-1.135,0.471c-0.301,0.301-0.47,0.709-0.47,1.135v15.405
			c0,0.426,0.169,0.834,0.47,1.135c0.301,0.301,0.709,0.471,1.135,0.471h0.843v0.846c0,0.426,0.169,0.833,0.47,1.135
			c0.301,0.301,0.709,0.471,1.135,0.471h12.172c0.426,0,0.834-0.17,1.135-0.471c0.301-0.302,0.471-0.709,0.471-1.135V11.961
			C27.02,11.535,26.85,11.127,26.549,10.825z M10.794,24.915V9.51h12.173v0.846v1.605v12.954h-9.725h-1.605H10.794z M25.414,27.366
			H13.242v-0.846h9.725c0.425,0,0.833-0.17,1.135-0.471c0.301-0.301,0.47-0.709,0.47-1.135V11.961h0.843V27.366z"/>
		<polygon fill="#F9AB19" points="17.279,20.405 20.057,17.629 21.334,18.906 21.334,15.189 17.646,15.189 18.904,16.448 
			17.271,18.082 14.842,15.65 11.838,18.654 12.997,19.813 14.846,17.973 		"/>
	</g>
</g>
</svg>
