<?xml version="1.0" encoding="utf-8"?>
<!-- Generator: Adobe Illustrator 16.0.0, SVG Export Plug-In . SVG Version: 6.00 Build 0)  -->
<!DOCTYPE svg PUBLIC "-//W3C//DTD SVG 1.1//EN" "http://www.w3.org/Graphics/SVG/1.1/DTD/svg11.dtd">
<svg version="1.1" id="Layer_1" xmlns="http://www.w3.org/2000/svg" xmlns:xlink="http://www.w3.org/1999/xlink" x="0px" y="0px"
	 width="37px" height="37px" viewBox="0 0 37 37" enable-background="new 0 0 37 37" xml:space="preserve">
<g>
	<g>
		<path fill="#009999" d="M18.521,0.042c-10.19,0-18.479,8.29-18.479,18.479S8.332,37,18.521,37C28.711,37,37,28.711,37,18.521
			S28.711,0.042,18.521,0.042z M18.521,35C9.435,35,2.042,27.607,2.042,18.521c0-9.087,7.393-16.479,16.479-16.479
			C27.607,2.042,35,9.435,35,18.521C35,27.607,27.607,35,18.521,35z"/>
	</g>
	<g>
		<path fill="#009999" d="M23.795,16.772c0,0.439-0.355,0.795-0.794,0.795H14.92c-0.439,0-0.794-0.355-0.794-0.795l0,0
			c0-0.438,0.355-0.794,0.794-0.794h8.081C23.439,15.979,23.795,16.334,23.795,16.772L23.795,16.772z"/>
		<path fill="#009999" d="M23.795,23.172c0,0.438-0.355,0.794-0.794,0.794H14.92c-0.439,0-0.794-0.355-0.794-0.794l0,0
			c0-0.439,0.355-0.795,0.794-0.795h8.081C23.439,22.377,23.795,22.732,23.795,23.172L23.795,23.172z"/>
		<path fill="#009999" d="M22.196,19.973c0,0.439-0.355,0.796-0.794,0.796H14.92c-0.439,0-0.794-0.356-0.794-0.796l0,0
			c0-0.438,0.355-0.794,0.794-0.794h6.482C21.841,19.179,22.196,19.535,22.196,19.973L22.196,19.973z"/>
		<g>
			<path fill="#009999" d="M23.864,28.787h-9.751c-0.786,0-1.579-0.343-2.176-0.94c-0.597-0.597-0.94-1.391-0.94-2.177V11.13
				c0-0.786,0.343-1.58,0.94-2.177c0.598-0.598,1.391-0.94,2.176-0.94h6.471c0.42,0,0.849,0.222,1.526,0.79
				c0.491,0.412,1.146,1.028,2.189,2.062c0.146,0.146,0.285,0.282,0.417,0.412c0.764,0.756,1.269,1.255,1.617,1.672
				c0.32,0.384,0.646,0.855,0.646,1.442V25.67c0,0.786-0.342,1.58-0.939,2.177C25.443,28.444,24.65,28.787,23.864,28.787z
				 M14.113,9.596c-0.774,0-1.534,0.76-1.534,1.534v14.54c0,0.774,0.76,1.534,1.534,1.534h9.751c0.774,0,1.534-0.76,1.534-1.534
				V15.183c0-0.001-0.014-0.817-1.161-0.817c-0.468,0-2.77,0-2.77,0c-0.633,0-0.87-0.427-0.87-0.875c0,0,0-2.286,0-2.871
				c0-1.068-0.771-0.988-0.844-1.023H14.113z"/>
		</g>
	</g>
</g>
</svg>
