<?xml version="1.0" encoding="utf-8"?>
<!-- Generator: Adobe Illustrator 16.0.0, SVG Export Plug-In . SVG Version: 6.00 Build 0)  -->
<!DOCTYPE svg PUBLIC "-//W3C//DTD SVG 1.1//EN" "http://www.w3.org/Graphics/SVG/1.1/DTD/svg11.dtd">
<svg version="1.1" id="Layer_1" xmlns="http://www.w3.org/2000/svg" xmlns:xlink="http://www.w3.org/1999/xlink" x="0px" y="0px"
	 width="37px" height="37px" viewBox="0 0 37 37" enable-background="new 0 0 37 37" xml:space="preserve">
<g>
	<g>
		<path fill="#F9AB19" d="M18.521,0.042c-10.19,0-18.479,8.29-18.479,18.479S8.332,37,18.521,37C28.711,37,37,28.711,37,18.521
			S28.711,0.042,18.521,0.042z M18.521,35C9.435,35,2.042,27.607,2.042,18.521c0-9.087,7.393-16.479,16.479-16.479
			C27.607,2.042,35,9.435,35,18.521C35,27.607,27.607,35,18.521,35z"/>
	</g>
	<g>
		<path fill="#F9AB19" d="M11.83,24.154h6.102v-5.241H11.83V24.154z M12.989,20.072h3.783v2.922h-3.783V20.072z"/>
		<path fill="#F9AB19" d="M30.236,14.443l-2.439-3.282V8.178H8.596V11.1L6.11,14.443l-0.002,0.188
			c-0.005,0.454,0.222,1.357,1.106,1.862c0.355,0.203,0.863,0.318,1.381,0.277v10.606h12.679v-7.306h2.174v7.306h4.348V16.772
			c0.502,0.03,0.99-0.081,1.335-0.278c0.884-0.505,1.112-1.408,1.106-1.862L30.236,14.443z M9.755,9.337h16.881v1.413H9.755V9.337z
			 M24.608,26.219v-7.306h-4.492v7.306H9.755v-9.882c0.081-0.062,0.168-0.114,0.238-0.186c0.021,0.022,0.042,0.045,0.063,0.067
			c0.403,0.41,0.948,0.617,1.619,0.617c0.761,0,1.266-0.306,1.594-0.704c0.356,0.392,0.888,0.673,1.635,0.673
			c0.631,0,1.17-0.206,1.557-0.597c0.039-0.038,0.074-0.077,0.108-0.117c0.343,0.37,0.849,0.634,1.546,0.649v0.004h0.045
			c0.004,0,0.008,0.001,0.012,0.001v-0.001h0.003v0.001c0.005,0,0.007-0.001,0.012-0.001h0.063v-0.006
			c0.686-0.02,1.188-0.281,1.527-0.647c0.033,0.04,0.069,0.079,0.107,0.117c0.389,0.391,0.927,0.597,1.558,0.597
			c0.747,0,1.278-0.281,1.635-0.673c0.327,0.398,0.833,0.704,1.595,0.704c0.67,0,1.215-0.207,1.618-0.617
			c0.022-0.022,0.043-0.045,0.063-0.067c0.082,0.085,0.186,0.151,0.283,0.221v9.847H24.608z M28.557,15.487
			c-0.287,0.165-0.838,0.2-1.199-0.011c-0.281-0.163-0.42-0.452-0.422-0.885c0-0.008,0-0.015,0-0.02l-1.159,0.009
			c0,0.003,0,0.007,0,0.011c-0.001,0.04-0.019,0.516-0.312,0.813c-0.181,0.183-0.439,0.271-0.793,0.271
			c-0.925,0-0.987-0.927-0.99-1.11l-1.16-0.011c-0.006,0.256-0.104,1.089-1.079,1.089c-0.968,0-1.052-0.836-1.056-1.088
			l-1.158-0.016c-0.004,0.174-0.074,1.035-1.041,1.044h-0.029c-0.926-0.008-1.03-0.804-1.039-1.044l-1.16,0.016
			c0,0.005-0.012,0.523-0.319,0.834c-0.17,0.171-0.411,0.254-0.735,0.254c-0.976,0-1.073-0.833-1.08-1.084l-1.159,0.003
			c-0.003,0.187-0.066,1.113-0.99,1.113c-1.015,0-1.103-0.824-1.105-1.082c0-0.005,0-0.009,0-0.014l-1.159-0.009
			c0,0.005,0,0.012,0,0.02c-0.002,0.433-0.14,0.722-0.421,0.885c-0.073,0.043-0.156,0.067-0.24,0.092H8.596V15.6
			c-0.295,0.044-0.611,0-0.806-0.112c-0.341-0.194-0.459-0.502-0.5-0.687l2.149-2.892h17.469l2.148,2.892
			C29.016,14.987,28.896,15.293,28.557,15.487z"/>
	</g>
</g>
</svg>
