<svg xmlns="http://www.w3.org/2000/svg" xmlns:xlink="http://www.w3.org/1999/xlink" width="27" height="50" viewBox="0 0 27 50"><defs><path id="x06na" d="M422.3 435.7a2.38 2.38 0 0 0-3.42 0l-22.15 22.55a2.48 2.48 0 0 0 0 3.47c.94.96 2.46.96 3.4 0l22.16-22.55c.95-.95.95-2.5 0-3.46z"/><path id="x06nb" d="M396.73 458.25a2.48 2.48 0 0 0 0 3.47l22.15 22.54c.95.96 2.47.96 3.41 0 .95-.96.95-2.5 0-3.47l-22.16-22.54a2.38 2.38 0 0 0-3.4 0z"/></defs><g><g transform="translate(-396 -435)"><use fill="#fff" xlink:href="#x06na"/></g><g transform="translate(-396 -435)"><use fill="#fff" xlink:href="#x06nb"/></g></g></svg>
