<?xml version="1.0" encoding="utf-8"?>
<!-- Generator: Adobe Illustrator 16.0.0, SVG Export Plug-In . SVG Version: 6.00 Build 0)  -->
<!DOCTYPE svg PUBLIC "-//W3C//DTD SVG 1.1//EN" "http://www.w3.org/Graphics/SVG/1.1/DTD/svg11.dtd">
<svg version="1.1" id="Layer_1" xmlns="http://www.w3.org/2000/svg" xmlns:xlink="http://www.w3.org/1999/xlink" x="0px" y="0px"
	 width="37px" height="37px" viewBox="0 0 37 37" enable-background="new 0 0 37 37" xml:space="preserve">
<g>
	<path fill="#FFFFFF" d="M37,22.275c0-1.277-1.039-2.316-2.317-2.316H21.261l-6.952-6.953c-0.903-0.902-2.373-0.903-3.276,0
		c-0.438,0.438-0.679,1.02-0.679,1.639s0.24,1.201,0.678,1.639l3.677,3.676H6.35c-1.277,0-2.316,1.039-2.316,2.316
		c0,1.217,0.946,2.207,2.14,2.299c5.702,11.15,5.991,11.383,6.114,11.482l0.164,0.131h8.065h8.065l0.164-0.131
		c0.123-0.1,0.412-0.332,6.113-11.482C36.054,24.482,37,23.492,37,22.275z M5.333,22.275c0-0.561,0.456-1.018,1.017-1.018h9.646
		c0.004,0,0.006-0.002,0.01-0.002l2.035,2.035H6.35C5.789,23.291,5.333,22.836,5.333,22.275z M28.051,34.988h-7.534h-7.534
		c-0.701-1.186-3.51-6.605-5.452-10.396h25.971C31.561,28.383,28.752,33.803,28.051,34.988z M34.683,23.291H19.88l-7.929-7.928
		c-0.192-0.191-0.299-0.447-0.298-0.719c0-0.271,0.106-0.527,0.298-0.719c0.396-0.396,1.042-0.396,1.438,0l7.136,7.135
		c0.118,0.121,0.282,0.197,0.465,0.197h13.693c0.561,0,1.017,0.457,1.017,1.018S35.243,23.291,34.683,23.291z"/>
	<path fill="#FFFFFF" d="M20.517,26.041c-0.919,0-1.667,0.748-1.667,1.666v4.9c0,0.92,0.748,1.668,1.667,1.668
		s1.667-0.748,1.667-1.668v-4.9C22.184,26.789,21.436,26.041,20.517,26.041z M21.184,32.607c0,0.369-0.299,0.668-0.667,0.668
		s-0.667-0.299-0.667-0.668v-4.9c0-0.367,0.299-0.666,0.667-0.666s0.667,0.299,0.667,0.666V32.607z"/>
	<path fill="#FFFFFF" d="M15.517,26.041c-0.919,0-1.667,0.748-1.667,1.666v4.9c0,0.92,0.748,1.668,1.667,1.668
		s1.667-0.748,1.667-1.668v-4.9C17.184,26.789,16.436,26.041,15.517,26.041z M16.184,32.607c0,0.369-0.299,0.668-0.667,0.668
		s-0.667-0.299-0.667-0.668v-4.9c0-0.367,0.299-0.666,0.667-0.666s0.667,0.299,0.667,0.666V32.607z"/>
	<path fill="#FFFFFF" d="M25.517,26.041c-0.919,0-1.667,0.748-1.667,1.666v4.9c0,0.92,0.748,1.668,1.667,1.668
		s1.667-0.748,1.667-1.668v-4.9C27.184,26.789,26.436,26.041,25.517,26.041z M26.184,32.607c0,0.369-0.299,0.668-0.667,0.668
		s-0.667-0.299-0.667-0.668v-4.9c0-0.367,0.299-0.666,0.667-0.666s0.667,0.299,0.667,0.666V32.607z"/>
</g>
</svg>
