<?xml version="1.0" encoding="utf-8"?>
<!-- Generator: Adobe Illustrator 16.0.0, SVG Export Plug-In . SVG Version: 6.00 Build 0)  -->
<!DOCTYPE svg PUBLIC "-//W3C//DTD SVG 1.1//EN" "http://www.w3.org/Graphics/SVG/1.1/DTD/svg11.dtd">
<svg version="1.1" id="Layer_1" xmlns="http://www.w3.org/2000/svg" xmlns:xlink="http://www.w3.org/1999/xlink" x="0px" y="0px"
	 width="37px" height="37px" viewBox="0 0 37 37" enable-background="new 0 0 37 37" xml:space="preserve">
<g>
	<g>
		<g>
			<path fill="#FFFFFF" d="M18.449,36.917c-10.178,0-18.458-8.28-18.458-18.458S8.271,0,18.449,0
				c10.178,0,18.459,8.28,18.459,18.458S28.627,36.917,18.449,36.917z M18.449,2C9.374,2,1.991,9.383,1.991,18.458
				c0,9.076,7.383,16.458,16.458,16.458s16.459-7.383,16.459-16.458C34.908,9.383,27.524,2,18.449,2z"/>
		</g>
		<path fill="#FFFFFF" d="M22.703,12.984c0.633-0.446,1.264-1.219,1.264-2.529c0-2.625-2.125-2.469-2.531-2.469
			s-2.092,0.248-2.967,2.776v-0.013c-0.875-2.532-2.562-2.78-2.969-2.78s-2.531-0.156-2.531,2.469c0,1.329,0.649,2.104,1.29,2.547H9
			V20h1.042v8.042h16.917V20h0.979v-7.016H22.703z M20.248,10.252c0.206-0.191,1.688-0.516,1.688,0.859
			c0,0.902-0.561,1.495-1.141,1.873h-1.736C19.23,11.688,19.924,10.553,20.248,10.252z M15,11.094c0-1.375,1.481-1.051,1.688-0.859
			c0.326,0.303,1.022,1.446,1.19,2.75h-1.714C15.576,12.607,15,12.008,15,11.094z M14,26.042h-1.958V20H14V26.042z M14,18h-3v-3.016
			h3V18z M22,26.042h-7.031V20H22V26.042z M22,18h-7.031v-3.016H22V18z M24.959,26.042h-1.99V20h1.99V26.042z M25.938,18h-2.969
			v-3.016h2.969V18z"/>
	</g>
	<polygon fill="#FFFFFF" points="17.917,13.546 17.916,13.531 17.469,13.531 	"/>
</g>
</svg>
