<svg xmlns="http://www.w3.org/2000/svg" xmlns:xlink="http://www.w3.org/1999/xlink" width="35" height="29" viewBox="0 0 35 29"><defs><path id="7n3ca" d="M16.5 77h30a2.5 2.5 0 1 1 0 5h-30a2.5 2.5 0 0 1 0-5z"/><path id="7n3cb" d="M16.5 89h30a2.5 2.5 0 1 1 0 5h-30a2.5 2.5 0 1 1 0-5z"/><path id="7n3cc" d="M16.5 101h30a2.5 2.5 0 0 1 0 5h-30a2.5 2.5 0 1 1 0-5z"/></defs><g><g transform="translate(-14 -77)"><use fill="#008b99" xlink:href="#7n3ca"/></g><g transform="translate(-14 -77)"><use fill="#008b99" xlink:href="#7n3cb"/></g><g transform="translate(-14 -77)"><use fill="#008b99" xlink:href="#7n3cc"/></g></g></svg>