<svg xmlns="http://www.w3.org/2000/svg" xmlns:xlink="http://www.w3.org/1999/xlink" width="14" height="12" viewBox="0 0 14 12"><defs><path id="l8pha" d="M702.782 814.44a1.5 1.5 0 0 1 2.122 0l4.657 4.656a1.5 1.5 0 0 1-2.122 2.121l-4.657-4.656a1.5 1.5 0 0 1 0-2.122z"/><path id="l8phb" d="M715.218 810.44a1.5 1.5 0 0 1 0 2.12l-5.657 8.657a1.5 1.5 0 0 1-2.122-2.12l5.657-8.658a1.5 1.5 0 0 1 2.122 0z"/></defs><g><g transform="translate(-702 -810)"><use fill="#414ecc" xlink:href="#l8pha"/></g><g transform="translate(-702 -810)"><use fill="#414ecc" xlink:href="#l8phb"/></g></g></svg>