<?xml version="1.0" encoding="utf-8"?>
<!-- Generator: Adobe Illustrator 16.0.0, SVG Export Plug-In . SVG Version: 6.00 Build 0)  -->
<!DOCTYPE svg PUBLIC "-//W3C//DTD SVG 1.1//EN" "http://www.w3.org/Graphics/SVG/1.1/DTD/svg11.dtd">
<svg version="1.1" id="Layer_1" xmlns="http://www.w3.org/2000/svg" xmlns:xlink="http://www.w3.org/1999/xlink" x="0px" y="0px"
	 width="22px" height="22px" viewBox="0 0 22 22" enable-background="new 0 0 22 22" xml:space="preserve">
<path fill="#009999" d="M17.163,6.407c-0.449-0.45-1.178-0.45-1.627,0l-6.752,6.752l-2.346-2.346c-0.449-0.45-1.178-0.45-1.627,0
	c-0.449,0.449-0.449,1.178,0,1.628l3.156,3.156c0.45,0.449,1.178,0.449,1.627,0c0-0.001,0.001-0.002,0.001-0.002
	c0.024-0.02,0.047-0.041,0.069-0.063l7.498-7.498C17.612,7.585,17.612,6.856,17.163,6.407z"/>
<g>
	<path fill="#009999" d="M10.983,21.965c-1.482,0-2.921-0.291-4.275-0.863c-1.308-0.554-2.482-1.346-3.491-2.354
		c-1.008-1.008-1.8-2.183-2.353-3.491C0.291,13.903,0,12.465,0,10.982s0.291-2.92,0.863-4.275c0.553-1.308,1.345-2.482,2.353-3.491
		c1.009-1.008,2.184-1.8,3.491-2.353C8.062,0.291,9.5,0,10.983,0c1.482,0,2.92,0.291,4.275,0.863
		c1.309,0.553,2.482,1.345,3.49,2.353c1.009,1.009,1.801,2.183,2.354,3.491c0.573,1.354,0.863,2.792,0.863,4.275
		s-0.29,2.921-0.863,4.274c-0.553,1.309-1.345,2.483-2.354,3.491c-1.008,1.008-2.182,1.8-3.49,2.354
		C13.903,21.674,12.465,21.965,10.983,21.965z M10.983,1.03c-1.344,0-2.647,0.264-3.874,0.783c-1.185,0.5-2.25,1.218-3.164,2.133
		C3.031,4.859,2.313,5.924,1.812,7.109C1.293,8.335,1.03,9.639,1.03,10.982s0.263,2.647,0.782,3.873
		c0.501,1.186,1.219,2.25,2.133,3.164c0.914,0.914,1.979,1.633,3.164,2.133c1.227,0.52,2.53,0.782,3.874,0.782
		c1.343,0,2.648-0.263,3.874-0.782c1.185-0.5,2.25-1.219,3.164-2.133c0.913-0.914,1.632-1.979,2.133-3.164
		c0.52-1.226,0.781-2.529,0.781-3.873s-0.262-2.647-0.781-3.874c-0.501-1.185-1.22-2.25-2.133-3.164
		c-0.914-0.915-1.979-1.632-3.164-2.133C13.631,1.293,12.326,1.03,10.983,1.03z"/>
</g>
</svg>
