<svg xmlns="http://www.w3.org/2000/svg" xmlns:xlink="http://www.w3.org/1999/xlink" width="32" height="32" viewBox="0 0 32 32"><defs><path id="kr7ya" d="M143 1692v-32h32v32zm1-16a15 15 0 1 0 30 0 15 15 0 0 0-30 0z"/><path id="kr7yb" d="M159 1661a15 15 0 1 1 0 30 15 15 0 0 1 0-30z"/><path id="kr7yd" d="M149.14 1672.15c.2-.2.53-.2.73 0l8.95 8.95a.52.52 0 0 1-.73.73l-8.95-8.95a.52.52 0 0 1 0-.73z"/><path id="kr7ye" d="M168.83 1672.15c.2.2.2.53 0 .73l-8.95 8.95a.52.52 0 0 1-.73-.73l8.95-8.95c.2-.2.53-.2.73 0z"/><clipPath id="kr7yc"><use fill="#fff" xlink:href="#kr7ya"/></clipPath></defs><g><g transform="translate(-143 -1660)"><g><use fill="#fff" xlink:href="#kr7yb"/><use fill="#fff" fill-opacity="0" stroke="#ccc" stroke-linecap="round" stroke-linejoin="round" stroke-miterlimit="50" stroke-width="2" clip-path="url(&quot;#kr7yc&quot;)" xlink:href="#kr7yb"/></g><g><use fill="#ccc" xlink:href="#kr7yd"/></g><g><use fill="#ccc" xlink:href="#kr7ye"/></g></g></g></svg>