<?xml version="1.0" encoding="utf-8"?>
<!-- Generator: Adobe Illustrator 16.0.0, SVG Export Plug-In . SVG Version: 6.00 Build 0)  -->
<!DOCTYPE svg PUBLIC "-//W3C//DTD SVG 1.1//EN" "http://www.w3.org/Graphics/SVG/1.1/DTD/svg11.dtd">
<svg version="1.1" id="Layer_1" xmlns="http://www.w3.org/2000/svg" xmlns:xlink="http://www.w3.org/1999/xlink" x="0px" y="0px"
	 width="19px" height="21px" viewBox="0 0 19 21" enable-background="new 0 0 19 21" xml:space="preserve">
<path fill-rule="evenodd" clip-rule="evenodd" d="M0.424,16.061c0.033-0.182,0.073-0.36,0.097-0.541
	c0.139-1.023,0.619-1.874,1.336-2.592c2.715-2.724,5.436-5.439,8.154-8.159c0.635-0.636,1.401-0.939,2.294-0.849
	c1.013,0.102,1.754,0.64,2.188,1.552c0.516,1.086,0.226,2.323-0.598,3.139c-2.275,2.26-4.537,4.533-6.804,6.798
	c-0.461,0.462-1.102,0.33-1.327-0.28c-0.118-0.318-0.022-0.593,0.218-0.829c0.621-0.616,1.236-1.237,1.854-1.856
	c1.627-1.625,3.254-3.252,4.879-4.88c0.211-0.21,0.388-0.432,0.447-0.747c0.089-0.494-0.224-1.081-0.706-1.26
	c-0.492-0.182-0.916-0.081-1.283,0.287c-2.78,2.779-5.564,5.556-8.335,8.345c-0.53,0.531-0.78,1.2-0.818,1.958
	c-0.044,0.908,0.264,1.682,0.884,2.317c0.543,0.557,1.217,0.872,2.015,0.915c0.784,0.044,1.476-0.177,2.099-0.639
	c0.076-0.056,0.145-0.121,0.211-0.187c2.832-2.83,5.664-5.657,8.489-8.494c0.654-0.655,1.067-1.46,1.252-2.361
	c0.316-1.544-0.001-2.972-0.973-4.21c-0.738-0.939-1.713-1.566-2.902-1.805c-1.837-0.369-3.415,0.135-4.737,1.45
	C6.554,4.929,4.755,6.73,2.959,8.533c-0.23,0.229-0.5,0.317-0.795,0.226c-0.305-0.093-0.545-0.31-0.57-0.645
	C1.58,7.933,1.659,7.737,1.725,7.559c0.033-0.089,0.127-0.158,0.2-0.23c1.771-1.772,3.549-3.538,5.312-5.318
	c1.074-1.086,2.375-1.702,3.861-1.966c0.114-0.021,0.228-0.04,0.343-0.06c0.347,0,0.692,0,1.04,0
	c0.058,0.017,0.116,0.041,0.177,0.052c0.35,0.061,0.709,0.093,1.053,0.181c1.367,0.354,2.508,1.075,3.411,2.168
	c0.791,0.957,1.283,2.042,1.453,3.274c0.031,0.205,0.066,0.408,0.1,0.613c0,0.298,0,0.599,0,0.898
	c-0.034,0.177-0.068,0.354-0.104,0.53c-0.262,1.392-0.849,2.619-1.854,3.627c-2.764,2.769-5.532,5.536-8.302,8.3
	c-0.612,0.61-1.354,0.999-2.193,1.199c-0.243,0.06-0.492,0.101-0.737,0.148c-0.299,0-0.599,0-0.898,0
	c-0.259-0.064-0.522-0.117-0.777-0.197c-1.67-0.526-2.731-1.647-3.218-3.32c-0.074-0.256-0.111-0.522-0.166-0.785
	C0.424,16.47,0.424,16.263,0.424,16.061z"/>
</svg>
