<?xml version="1.0" encoding="utf-8"?>
<!-- Generator: Adobe Illustrator 16.0.0, SVG Export Plug-In . SVG Version: 6.00 Build 0)  -->
<!DOCTYPE svg PUBLIC "-//W3C//DTD SVG 1.1//EN" "http://www.w3.org/Graphics/SVG/1.1/DTD/svg11.dtd">
<svg version="1.1" id="Layer_1" xmlns="http://www.w3.org/2000/svg" xmlns:xlink="http://www.w3.org/1999/xlink" x="0px" y="0px"
	 width="21px" height="21px" viewBox="0 0 21 21" enable-background="new 0 0 21 21" xml:space="preserve">
<path fill-rule="evenodd" clip-rule="evenodd" d="M2.63,5.23c-0.419,0-0.815,0-1.211,0C1.037,5.229,0.902,5.097,0.897,4.718
	c-0.002-0.247-0.003-0.494,0-0.741C0.903,3.636,1.035,3.504,1.38,3.503c1.291-0.002,2.581-0.005,3.873,0.003
	c0.209,0.002,0.319-0.045,0.401-0.258c0.251-0.651,0.529-1.293,0.806-1.934c0.369-0.852,1.02-1.301,1.951-1.307
	c1.395-0.009,2.789-0.012,4.183,0.001c0.928,0.009,1.58,0.458,1.944,1.315c0.283,0.664,0.567,1.329,0.838,1.998
	c0.059,0.144,0.134,0.184,0.282,0.184c1.29-0.005,2.58-0.004,3.871-0.003c0.465,0,0.572,0.108,0.574,0.58
	c0,0.215,0.004,0.43-0.001,0.645c-0.01,0.366-0.148,0.5-0.513,0.502c-0.397,0.001-0.797,0-1.229,0c0,0.111,0,0.211,0,0.311
	c0,4.223,0.004,8.445-0.002,12.668c-0.002,0.853-0.278,1.606-0.899,2.214c-0.369,0.361-0.81,0.539-1.331,0.539
	c-3.696-0.004-7.393-0.016-11.091,0.008c-0.985,0.006-1.62-0.459-2.062-1.273C2.711,19.21,2.63,18.677,2.63,18.13
	c0-4.199,0-8.397,0-12.596C2.63,5.441,2.63,5.348,2.63,5.23z M16.633,5.246c-4.101,0-8.173,0-12.259,0
	C4.369,5.315,4.363,5.369,4.363,5.423c0,4.238-0.004,8.476,0.009,12.714c0.001,0.281,0.118,0.569,0.212,0.843
	c0.063,0.185,0.216,0.26,0.432,0.26c3.648-0.007,7.298-0.008,10.946,0.001c0.237,0,0.4-0.09,0.465-0.286
	c0.095-0.29,0.196-0.596,0.197-0.896c0.013-4.182,0.009-8.365,0.009-12.547C16.633,5.427,16.633,5.341,16.633,5.246z M13.548,3.494
	c-0.027-0.086-0.042-0.146-0.064-0.203c-0.174-0.426-0.353-0.849-0.521-1.276c-0.077-0.197-0.203-0.278-0.417-0.277
	c-1.36,0.005-2.721,0.006-4.082,0C8.25,1.735,8.122,1.818,8.044,2.011C7.868,2.444,7.685,2.875,7.506,3.307
	C7.483,3.362,7.471,3.422,7.45,3.494C9.488,3.494,11.498,3.494,13.548,3.494z"/>
<path fill-rule="evenodd" clip-rule="evenodd" d="M13.144,12.215c0-1.273-0.001-2.547,0-3.82c0-0.389,0.138-0.53,0.526-0.535
	c0.231-0.003,0.462-0.006,0.692,0.001c0.337,0.011,0.494,0.167,0.504,0.503c0.008,0.248,0.001,0.494,0.001,0.741
	c0,2.283,0,4.568,0,6.853c0,0.507-0.13,0.639-0.63,0.64c-0.198,0-0.397,0.004-0.597-0.002c-0.362-0.01-0.496-0.148-0.497-0.513
	C13.143,14.793,13.144,13.504,13.144,12.215z"/>
<path fill-rule="evenodd" clip-rule="evenodd" d="M7.854,12.233c0,1.267,0,2.533-0.001,3.801c0,0.437-0.128,0.56-0.57,0.562
	c-0.223,0.001-0.446,0.008-0.669-0.002c-0.32-0.014-0.457-0.154-0.48-0.473c-0.004-0.063-0.001-0.128-0.001-0.19
	c0-2.471,0-4.94,0-7.409c0-0.538,0.124-0.662,0.658-0.662c0.19,0,0.382-0.005,0.573,0.001c0.348,0.011,0.489,0.151,0.49,0.501
	C7.854,9.652,7.854,10.943,7.854,12.233z"/>
<path fill-rule="evenodd" clip-rule="evenodd" d="M9.643,12.215c-0.001-1.25-0.001-2.501,0-3.752c0-0.484,0.121-0.603,0.606-0.604
	c0.207,0,0.415-0.005,0.622,0.001c0.322,0.011,0.463,0.147,0.49,0.464c0.006,0.071,0.002,0.143,0.002,0.214c0,2.462,0,4.923,0,7.386
	c0,0.079,0.004,0.159-0.006,0.238c-0.029,0.275-0.148,0.41-0.42,0.426c-0.294,0.017-0.591,0.019-0.883-0.001
	c-0.3-0.02-0.41-0.172-0.411-0.525C9.642,14.78,9.643,13.498,9.643,12.215z"/>
</svg>
