<?xml version="1.0" encoding="utf-8"?>
<!-- Generator: Adobe Illustrator 16.0.0, SVG Export Plug-In . SVG Version: 6.00 Build 0)  -->
<!DOCTYPE svg PUBLIC "-//W3C//DTD SVG 1.1//EN" "http://www.w3.org/Graphics/SVG/1.1/DTD/svg11.dtd">
<svg version="1.1" id="Layer_1" xmlns="http://www.w3.org/2000/svg" xmlns:xlink="http://www.w3.org/1999/xlink" x="0px" y="0px"
	 width="37px" height="37px" viewBox="0 0 37 37" enable-background="new 0 0 37 37" xml:space="preserve">
<path fill="#FFFFFF" d="M31.129,9.443H2.653c-1.385,0-2.512,1.127-2.512,2.512v17.973c0,1.385,1.127,2.512,2.512,2.512h28.476
	c1.385,0,2.512-1.127,2.512-2.512V11.955C33.641,10.57,32.514,9.443,31.129,9.443z M32.141,27.857l-8.355-7.029
	c3.016-2.551,6.619-5.603,8.355-7.074V27.857z M2.653,10.943h28.476c0.508,0,0.91,0.381,0.982,0.869
	c-1.068,0.905-13.493,11.432-14.149,11.967c-0.309,0.25-0.879,0.28-1.137,0.271V24.05c-0.008,0.001-0.026,0-0.036,0.001
	c-0.013-0.001-0.036,0-0.046-0.001v0.002c-0.26,0.01-0.832-0.021-1.14-0.272c-0.63-0.514-12.089-10.221-13.962-11.809v-0.016
	C1.641,11.397,2.095,10.943,2.653,10.943z M9.885,20.916l-8.244,6.981V13.937C3.468,15.485,6.967,18.448,9.885,20.916z
	 M31.129,30.939H2.653c-0.558,0-1.012-0.454-1.012-1.012v-0.064l9.405-7.965c1.918,1.621,3.389,2.863,3.61,3.043
	c0.658,0.536,1.554,0.613,2.015,0.613c0.045,0,0.076-0.002,0.112-0.003c0.036,0.001,0.067,0.003,0.112,0.003
	c0.461,0,1.356-0.077,2.015-0.613c0.225-0.184,1.745-1.466,3.713-3.13l9.518,8.007v0.109C32.141,30.485,31.688,30.939,31.129,30.939
	z"/>
</svg>
