<?xml version="1.0" encoding="utf-8"?>
<!-- Generator: Adobe Illustrator 16.0.0, SVG Export Plug-In . SVG Version: 6.00 Build 0)  -->
<!DOCTYPE svg PUBLIC "-//W3C//DTD SVG 1.1//EN" "http://www.w3.org/Graphics/SVG/1.1/DTD/svg11.dtd">
<svg version="1.1" id="Layer_1" xmlns="http://www.w3.org/2000/svg" xmlns:xlink="http://www.w3.org/1999/xlink" x="0px" y="0px"
	 width="37px" height="37px" viewBox="0 0 37 37" enable-background="new 0 0 37 37" xml:space="preserve">
<g>
	<path fill="#FFFFFF" d="M32.141,27.857l-8.346-7.021c1.615-1.363,3.064-2.587,3.305-2.79l-1.664-0.57
		c-0.135,0.115-6.791,5.746-7.473,6.303c-0.308,0.25-0.878,0.28-1.137,0.271V24.05c-0.008,0.001-0.026,0-0.036,0.001
		c-0.013-0.001-0.036,0-0.046-0.001v0.002c-0.26,0.01-0.832-0.021-1.14-0.272C14.973,23.266,3.514,13.558,1.641,11.97v-0.015
		c0-0.558,0.454-1.012,1.012-1.012h15.821v-1.5H2.653c-1.385,0-2.512,1.127-2.512,2.512v17.973c0,1.385,1.127,2.512,2.512,2.512
		h28.476c1.385,0,2.512-1.127,2.512-2.512V17.859h-1.5V27.857z M9.885,20.916l-8.244,6.981V13.937
		C3.468,15.484,6.967,18.448,9.885,20.916z M31.129,30.939H2.653c-0.558,0-1.012-0.454-1.012-1.012v-0.064l9.406-7.965
		c1.917,1.621,3.389,2.863,3.609,3.043c0.658,0.536,1.554,0.613,2.015,0.613c0.045,0,0.076-0.002,0.112-0.003
		c0.036,0.001,0.067,0.003,0.112,0.003c0.461,0,1.357-0.077,2.015-0.613c0.321-0.262,1.977-1.654,3.719-3.123l9.512,8v0.109
		C32.141,30.485,31.688,30.939,31.129,30.939z"/>
	<path fill="#FFFFFF" d="M28.738,0c-4.557,0-8.264,3.707-8.264,8.263s3.707,8.263,8.264,8.263c4.555,0,8.262-3.707,8.262-8.263
		S33.293,0,28.738,0z M28.738,15.026c-3.73,0-6.764-3.034-6.764-6.763S25.008,1.5,28.738,1.5c3.729,0,6.762,3.034,6.762,6.763
		S32.467,15.026,28.738,15.026z"/>
</g>
</svg>
