<?xml version="1.0" encoding="utf-8"?>
<!-- Generator: Adobe Illustrator 23.0.0, SVG Export Plug-In . SVG Version: 6.00 Build 0)  -->
<svg version="1.1" id="Layer_1" xmlns="http://www.w3.org/2000/svg" xmlns:xlink="http://www.w3.org/1999/xlink" x="0px" y="0px"
	 viewBox="0 0 33.4 33.4" style="enable-background:new 0 0 33.4 33.4;" xml:space="preserve">
<style type="text/css">
	.st0{fill:#FFFFFF;}
</style>
<g>
	<path class="st0" d="M16.7,0C7.5,0,0,7.5,0,16.7s7.5,16.7,16.7,16.7s16.7-7.5,16.7-16.7S25.9,0,16.7,0z M16.7,31.9
		c-8.4,0-15.2-6.8-15.2-15.2S8.3,1.5,16.7,1.5s15.2,6.8,15.2,15.2S25.1,31.9,16.7,31.9z"/>
	<path class="st0" d="M12,16.8c2,0,3.7-1.8,3.7-4.1S14.1,8.6,12,8.6s-3.7,1.8-3.7,4.1S10,16.8,12,16.8z M12,10.1
		c1.2,0,2.2,1.2,2.2,2.6s-1,2.6-2.2,2.6s-2.2-1.2-2.2-2.6S10.8,10.1,12,10.1z"/>
	<path class="st0" d="M22.1,14.8c2,0,3.7-1.8,3.7-4.1s-1.7-4.1-3.7-4.1s-3.7,1.8-3.7,4.1S20,14.8,22.1,14.8z M22.1,8.2
		c1.2,0,2.2,1.2,2.2,2.6s-1,2.6-2.2,2.6s-2.2-1.2-2.2-2.6S20.8,8.2,22.1,8.2z"/>
	<path class="st0" d="M29.9,18.8c0-0.1-1-3-4.1-3.7L25.4,15l-0.3,0.3c0,0-1.2,1-3.1,1c-1.9,0-3.1-1-3.1-1L18.7,15l-0.4,0.1
		c-1.7,0.4-2.7,1.4-3.3,2.2c-0.2,0.1-1.3,1-3,1c-1.9,0-3.1-1-3.1-1L8.7,17l-0.4,0.1c-3.1,0.7-4.1,3.6-4.1,3.7L4,21.2l0.2,0.3
		c1.9,2.8,4.5,4.3,7.8,4.3c2.6,0,4.7-0.9,6.5-2.7c1.1,0.5,2.3,0.7,3.6,0.7c3.3,0,5.9-1.4,7.8-4.3l0.2-0.3L29.9,18.8z M12,24.2
		c-2.6,0-4.7-1.1-6.3-3.3c0.3-0.6,1-1.8,2.6-2.3c0.6,0.4,1.9,1.1,3.7,1.1c1.8,0,3.1-0.7,3.7-1.1c1.6,0.5,2.3,1.7,2.6,2.3
		C16.8,23.1,14.6,24.2,12,24.2z M22,22.3c-0.9,0-1.8-0.1-2.6-0.4c0.1-0.1,0.2-0.3,0.3-0.4l0.2-0.3l-0.1-0.3c0-0.1-0.7-2.3-3-3.3
		c0.4-0.4,0.9-0.6,1.4-0.8c0.6,0.4,1.9,1.1,3.7,1.1c1.8,0,3.1-0.7,3.7-1.1c1.6,0.5,2.3,1.7,2.6,2.3C26.8,21.2,24.7,22.3,22,22.3z"/>
</g>
</svg>
