<?xml version="1.0" encoding="utf-8"?>
<!-- Generator: Adobe Illustrator 16.0.0, SVG Export Plug-In . SVG Version: 6.00 Build 0)  -->
<!DOCTYPE svg PUBLIC "-//W3C//DTD SVG 1.1//EN" "http://www.w3.org/Graphics/SVG/1.1/DTD/svg11.dtd">
<svg version="1.1" id="Layer_1" xmlns="http://www.w3.org/2000/svg" xmlns:xlink="http://www.w3.org/1999/xlink" x="0px" y="0px"
	 width="21px" height="21px" viewBox="0 0 21 21" enable-background="new 0 0 21 21" xml:space="preserve">
<path fill="#231F20" d="M19.449,16.822c0,1.499-1.219,2.718-2.718,2.718H4.171c-1.499,0-2.718-1.219-2.718-2.718V4.262
	c0-1.499,1.219-2.718,2.718-2.718h8.866l1.441-1.443H4.171c-2.294,0-4.161,1.867-4.161,4.161v12.561c0,2.295,1.866,4.16,4.161,4.16
	h12.561c2.295,0,4.161-1.865,4.161-4.16V6.714l-1.443,1.442V16.822z"/>
<path fill="#231F20" d="M6.23,11.316l-1.163,4.85l4.81-1.202c0,0-0.401-0.322-0.401-0.963c0,0-2.124,0.361-2.325-2.124
	C7.152,11.877,6.431,11.918,6.23,11.316z"/>
<path fill="#231F20" d="M7.022,10.634c-0.255-0.255-0.195-0.48,0.075-0.751c0.271-0.271,7.16-7.265,7.36-7.435
	c0.2-0.171,0.411-0.061,0.592,0.15c0.178,0.211,0.339,0.421,0.118,0.651c-0.219,0.231-7.293,7.294-7.454,7.435
	C7.553,10.824,7.282,10.896,7.022,10.634z"/>
<path fill="#231F20" d="M10.521,14.137c-0.255-0.256-0.195-0.482,0.076-0.75c0.271-0.272,7.158-7.267,7.358-7.436
	c0.201-0.171,0.411-0.061,0.592,0.15c0.181,0.21,0.342,0.42,0.12,0.651c-0.22,0.23-7.295,7.295-7.454,7.435
	C11.053,14.327,10.782,14.397,10.521,14.137z"/>
<path fill="#231F20" d="M8.426,12.67c-0.553-0.552-0.424-0.918-0.155-1.188c0.271-0.271,7.501-7.606,7.702-7.777
	c0.201-0.17,0.778,0.282,0.961,0.492c0.18,0.211,0.681,0.735,0.46,0.966c-0.221,0.23-7.637,7.637-7.797,7.776
	C9.437,13.079,8.976,13.22,8.426,12.67z"/>
<path fill="#231F20" d="M15.439,1.544l4.147,4.323c0,0,1.393-0.854,1.393-2.161s-2.466-3.492-3.387-3.492
	C16.671,0.214,15.841,1.142,15.439,1.544z"/>
</svg>
