<?xml version="1.0" encoding="utf-8"?>
<!-- Generator: Adobe Illustrator 23.0.0, SVG Export Plug-In . SVG Version: 6.00 Build 0)  -->
<svg version="1.1" id="Слой_1" xmlns="http://www.w3.org/2000/svg" xmlns:xlink="http://www.w3.org/1999/xlink" x="0px" y="0px"
	 viewBox="0 0 18 18" style="enable-background:new 0 0 18 18;" xml:space="preserve">
<style type="text/css">
	.st0{fill:#999999;}
</style>
<path class="st0" d="M14.29,7c-0.03,1.54-0.38,2.83-1.15,4c-0.16,0.25-0.13,0.37,0.07,0.57c1.48,1.46,2.94,2.93,4.41,4.41
	c0.49,0.49,0.51,1.2,0.05,1.67c-0.47,0.48-1.19,0.48-1.69-0.01c-1.4-1.4-2.8-2.8-4.21-4.2c-0.45-0.45-0.45-0.45-1-0.13
	c-4.28,2.52-9.77-0.01-10.65-4.9C-0.58,4.53,2,0.83,5.88,0.12c3.92-0.72,7.74,2.01,8.31,5.93C14.24,6.41,14.27,6.78,14.29,7z
	 M7.14,1.66c-3.01,0-5.45,2.43-5.49,5.4c-0.04,3.05,2.44,5.57,5.45,5.57c3.07,0,5.52-2.42,5.52-5.46C12.62,4.1,10.2,1.66,7.14,1.66z
	"/>
</svg>
