<?xml version="1.0" encoding="utf-8"?>
<!-- Generator: Adobe Illustrator 16.0.0, SVG Export Plug-In . SVG Version: 6.00 Build 0)  -->
<!DOCTYPE svg PUBLIC "-//W3C//DTD SVG 1.1//EN" "http://www.w3.org/Graphics/SVG/1.1/DTD/svg11.dtd">
<svg version="1.1" id="Layer_1" xmlns="http://www.w3.org/2000/svg" xmlns:xlink="http://www.w3.org/1999/xlink" x="0px" y="0px"
	 width="34px" height="34px" viewBox="0 0 34 34" enable-background="new 0 0 34 34" xml:space="preserve">
<g>
	<path fill="#009999" d="M16.99,34c-0.159,0-0.31-0.062-0.422-0.174l-2.453-2.454l-3.208,1.321c-0.147,0.06-0.311,0.06-0.457-0.001
		c-0.146-0.062-0.262-0.178-0.322-0.324l-1.307-3.173H5.389c-0.33,0-0.597-0.268-0.597-0.597v-3.47L1.59,23.794
		c-0.304-0.126-0.448-0.476-0.321-0.78l1.32-3.168L0.163,17.42c-0.113-0.112-0.175-0.264-0.175-0.422s0.062-0.31,0.175-0.422
		l2.453-2.453l-1.321-3.208c-0.061-0.146-0.06-0.311,0-0.457c0.061-0.146,0.178-0.262,0.324-0.322l3.174-1.306V5.397
		c0-0.33,0.267-0.597,0.597-0.597h3.469l1.334-3.203c0.127-0.304,0.476-0.448,0.781-0.321l3.167,1.32l2.427-2.426
		c0.224-0.224,0.621-0.224,0.844,0l2.452,2.453l3.209-1.321c0.306-0.125,0.653,0.02,0.779,0.325L25.158,4.8h3.433
		c0.329,0,0.598,0.267,0.598,0.597v3.47l3.201,1.334c0.146,0.061,0.262,0.178,0.323,0.324c0.06,0.146,0.06,0.311-0.001,0.457
		l-1.321,3.167l2.427,2.426c0.232,0.233,0.232,0.611,0,0.845l-2.453,2.452l1.321,3.209c0.125,0.305-0.019,0.653-0.325,0.778
		l-3.172,1.307v3.433c0,0.329-0.269,0.597-0.598,0.597h-3.47l-1.335,3.202c-0.061,0.146-0.177,0.262-0.324,0.323
		c-0.146,0.06-0.311,0.059-0.456-0.001l-3.167-1.321l-2.427,2.428C17.3,33.938,17.148,34,16.99,34z M14.255,30.072
		c0.155,0,0.309,0.061,0.422,0.175l2.313,2.312l2.286-2.287c0.172-0.17,0.429-0.222,0.652-0.128l2.985,1.244l1.258-3.02
		c0.093-0.222,0.311-0.366,0.552-0.366h3.271v-3.235c0-0.242,0.146-0.459,0.368-0.552l2.992-1.232l-1.245-3.022
		c-0.091-0.224-0.04-0.479,0.13-0.65l2.312-2.312l-2.286-2.287c-0.171-0.171-0.222-0.429-0.129-0.652l1.244-2.985l-3.02-1.258
		c-0.222-0.092-0.366-0.31-0.366-0.551v-3.27h-3.235c-0.241,0-0.459-0.146-0.551-0.37l-1.232-2.99l-3.023,1.245
		c-0.225,0.092-0.479,0.04-0.65-0.131L16.99,1.436l-2.288,2.288c-0.171,0.171-0.428,0.222-0.652,0.128l-2.985-1.244L9.808,5.626
		c-0.092,0.223-0.31,0.368-0.551,0.368H5.986v3.234c0,0.242-0.146,0.459-0.37,0.552l-2.991,1.231l1.246,3.024
		c0.092,0.223,0.04,0.479-0.131,0.649l-2.312,2.312l2.287,2.287c0.171,0.172,0.222,0.429,0.129,0.652L2.6,22.922l3.019,1.258
		c0.223,0.093,0.368,0.311,0.368,0.552v3.271h3.234c0.242,0,0.459,0.146,0.552,0.368l1.231,2.992l3.024-1.245
		C14.102,30.087,14.179,30.072,14.255,30.072z"/>
</g>
<g>
	<path fill="#009999" d="M22.239,24.792c-0.095,0-0.19-0.022-0.277-0.068L16.99,22.11l-4.972,2.613
		c-0.201,0.105-0.444,0.089-0.628-0.046c-0.184-0.133-0.276-0.359-0.238-0.584l0.95-5.535l-4.022-3.922
		c-0.163-0.158-0.221-0.395-0.151-0.611c0.07-0.216,0.257-0.374,0.482-0.406l5.559-0.808l2.486-5.038
		c0.1-0.204,0.308-0.333,0.536-0.333c0.227,0,0.434,0.129,0.535,0.333l2.485,5.038l5.56,0.808c0.225,0.033,0.411,0.19,0.481,0.406
		c0.07,0.216,0.012,0.453-0.15,0.611l-4.023,3.922l0.95,5.535c0.038,0.225-0.054,0.451-0.237,0.584
		C22.486,24.755,22.364,24.792,22.239,24.792z M16.99,20.838c0.095,0,0.19,0.022,0.278,0.068l4.179,2.196l-0.799-4.652
		c-0.032-0.194,0.032-0.391,0.173-0.529l3.38-3.295l-4.672-0.679c-0.194-0.028-0.362-0.15-0.449-0.326l-2.09-4.234l-2.09,4.234
		c-0.087,0.176-0.255,0.298-0.45,0.326l-4.672,0.679l3.381,3.295c0.141,0.138,0.205,0.334,0.171,0.529l-0.798,4.652l4.18-2.196
		C16.799,20.86,16.895,20.838,16.99,20.838z"/>
</g>
</svg>
