<?xml version="1.0" encoding="utf-8"?>
<!-- Generator: Adobe Illustrator 16.0.0, SVG Export Plug-In . SVG Version: 6.00 Build 0)  -->
<!DOCTYPE svg PUBLIC "-//W3C//DTD SVG 1.1//EN" "http://www.w3.org/Graphics/SVG/1.1/DTD/svg11.dtd">
<svg version="1.1" id="Layer_1" xmlns="http://www.w3.org/2000/svg" xmlns:xlink="http://www.w3.org/1999/xlink" x="0px" y="0px"
	 width="30px" height="30px" viewBox="0 0 30 30" enable-background="new 0 0 30 30" xml:space="preserve">
<g>
	<g>
		<g>
			<g>
				<path fill="#009999" d="M14.977,30C6.724,30,0.01,23.286,0.01,15.034c0-8.253,6.714-14.967,14.967-14.967
					c8.252,0,14.967,6.714,14.967,14.967C29.943,23.286,23.229,30,14.977,30z M14.977,1.119c-7.673,0-13.916,6.243-13.916,13.916
					s6.243,13.915,13.916,13.915s13.915-6.242,13.915-13.915S22.649,1.119,14.977,1.119z"/>
			</g>
		</g>
	</g>
	<g>
		<path fill="#009999" d="M14.977,25.601c-5.742,0-8.482-4.328-8.596-4.513L6.246,20.87l0.089-0.239
			c1.673-4.556,8.354-4.608,8.639-4.608c0.29,0,6.973,0.053,8.646,4.608l0.088,0.239l-0.135,0.218
			C23.46,21.272,20.719,25.601,14.977,25.601z M7.418,20.748c0.602,0.837,3.048,3.8,7.558,3.8s6.955-2.961,7.558-3.8
			c-1.588-3.632-7.494-3.674-7.554-3.674C14.913,17.074,9.007,17.116,7.418,20.748z"/>
	</g>
	<g>
		<path fill="#009999" d="M14.977,15.323c-3.027,0-5.489-2.463-5.489-5.49c0-3.027,2.462-5.489,5.489-5.489
			c3.026,0,5.489,2.462,5.489,5.489C20.466,12.86,18.003,15.323,14.977,15.323z M14.977,5.396c-2.447,0-4.438,1.991-4.438,4.438
			s1.991,4.438,4.438,4.438s4.438-1.991,4.438-4.438S17.424,5.396,14.977,5.396z"/>
	</g>
</g>
</svg>
