<?xml version="1.0" encoding="utf-8"?>
<!-- Generator: Adobe Illustrator 16.0.0, SVG Export Plug-In . SVG Version: 6.00 Build 0)  -->
<!DOCTYPE svg PUBLIC "-//W3C//DTD SVG 1.1//EN" "http://www.w3.org/Graphics/SVG/1.1/DTD/svg11.dtd">
<svg version="1.1" id="Layer_1" xmlns="http://www.w3.org/2000/svg" xmlns:xlink="http://www.w3.org/1999/xlink" x="0px" y="0px"
	 width="37px" height="37px" viewBox="0 0 37 37" enable-background="new 0 0 37 37" xml:space="preserve">
<g>
	<path fill="#FFFFFF" d="M18.501,35.188c-9.202,0-16.688-7.486-16.688-16.688c0-9.201,7.486-16.687,16.688-16.687
		c9.201,0,16.687,7.486,16.687,16.687C35.188,27.701,27.702,35.188,18.501,35.188z M18.501,3.312
		c-8.375,0-15.188,6.813-15.188,15.187c0,8.375,6.813,15.188,15.188,15.188c8.374,0,15.187-6.813,15.187-15.188
		C33.688,10.125,26.875,3.312,18.501,3.312z"/>
</g>
<g>
	<path fill="#FFFFFF" d="M18.501,30.438c-4.37,0-8.388-2.385-10.484-6.225l-0.21-0.385l0.232-0.372
		c1.895-3.033,4.999-3.668,5.13-3.693l0.296-0.058l0.253,0.163c0.018,0.012,1.979,1.235,4.783,1.235
		c2.643,0,4.786-1.239,4.807-1.251l0.25-0.146l0.283,0.059c0.122,0.025,3.004,0.657,5.108,3.635l0.27,0.381l-0.223,0.41
		C26.902,28.044,22.881,30.438,18.501,30.438z M9.558,23.885c1.887,3.128,5.272,5.053,8.943,5.053s7.054-1.923,8.94-5.05
		c-1.377-1.729-3.045-2.389-3.664-2.586c-0.739,0.378-2.801,1.302-5.276,1.302c-2.621,0-4.579-0.911-5.298-1.302
		C12.558,21.494,10.808,22.151,9.558,23.885z"/>
</g>
<g>
	<path fill="#FFFFFF" d="M18.5,18.771c-2.906,0-5.271-2.364-5.271-5.271s2.364-5.271,5.271-5.271s5.271,2.365,5.271,5.271
		S21.406,18.771,18.5,18.771z M18.5,9.729c-2.079,0-3.771,1.691-3.771,3.771c0,2.079,1.691,3.771,3.771,3.771
		s3.771-1.691,3.771-3.771C22.271,11.42,20.579,9.729,18.5,9.729z"/>
</g>
</svg>
