<?xml version="1.0" encoding="utf-8"?>
<!-- Generator: Adobe Illustrator 22.1.0, SVG Export Plug-In . SVG Version: 6.00 Build 0)  -->
<svg version="1.1" id="Слой_1" xmlns="http://www.w3.org/2000/svg" xmlns:xlink="http://www.w3.org/1999/xlink" x="0px" y="0px"
	 width="18" height="16" viewBox="0 0 22 22" style="enable-background:new 0 0 22 22;" xml:space="preserve">
<style type="text/css">
	.st0{fill:#009999;}
</style>
<g>
	<path class="st0" d="M18,15.1c-0.1-0.1-0.3-0.1-0.4-0.1l0,0c0,0,0,0,0,0c0,0,0,0,0,0c-0.1,0-2.2-0.7-3-1.2
		c-0.4-0.3-0.4-1.1-1.1-1.2c-0.7-0.1-0.2-0.7,0-0.9s0.3-0.7,0.3-1.2c0,0,0.4-0.1,0.6-0.6c0.2-0.5,0.5-1.4,0-1.7c0,0,0.3-0.8,0.3-2.2
		S14.1,4,13.8,4s-0.6-0.4-0.7-0.5c-0.1-0.1-1-0.5-2.4-0.5c-1,0-1.5,0.3-2,0.6C8.2,3.9,7.6,4.1,7.4,4.4S7,5.1,7,6.1
		c0,1,0.3,2.2,0.3,2.2S7,8.2,7,8.8s0.1,1.1,1,1.7c0,0-0.1,0.7,0.3,1.1c0.4,0.4,0.4,0.7,0.3,0.8s-0.5,0-0.7,0.3
		c-0.2,0.3-0.4,0.9-1.1,1.2c-0.7,0.2-2.5,1-2.8,1.2C1.9,16,2.1,19,2.1,19H11c0,0,0,0,0,0v0h8.9C19.9,19,20.1,16,18,15.1z"/>
</g>
</svg>
